<svg version="1.1" viewBox="0.0 0.0 406.5564304461942 117.44881889763779" fill="none" stroke="none" stroke-linecap="square" stroke-miterlimit="10" xmlns:xlink="http://www.w3.org/1999/xlink" xmlns="http://www.w3.org/2000/svg"><clipPath id="p.0"><path d="m0 0l406.55643 0l0 117.44882l-406.55643 0l0 -117.44882z" clip-rule="nonzero"/></clipPath><g clip-path="url(#p.0)"><path fill="#000000" fill-opacity="0.0" d="m0 0l406.55643 0l0 117.44882l-406.55643 0z" fill-rule="evenodd"/><path fill="#eeeeee" d="m209.73753 0.07874016l196.8189 0l0 117.291336l-196.8189 0z" fill-rule="evenodd"/><path fill="#666666" d="m263.03033 41.023785l-12.875015 0l0 -5.1875l31.10939 0l0 5.1875l-12.796875 0l0 40.64063l-5.4375 0l0 -40.64063zm33.3432 41.67188q-4.671875 0 -8.390625 -2.234375q-3.703125 -2.25 -5.796875 -6.1875q-2.078125 -3.9375 -2.078125 -8.859375q0 -4.671879 1.953125 -8.671879q1.953125 -4.0 5.5625 -6.359375q3.625 -2.375 8.296875 -2.375q4.796875 0 8.3125 2.140625q3.53125 2.140625 5.421875 5.921875q1.890625 3.765625 1.890625 8.640629q0 0.765625 -0.140625 1.65625l-25.84375 0q0.1875 3.71875 1.78125 6.28125q1.609375 2.546875 4.0625 3.828125q2.46875 1.28125 5.15625 1.28125q6.40625 0 9.671875 -5.890625l4.609375 2.25q-2.0625 3.90625 -5.703125 6.25q-3.640625 2.328125 -8.765625 2.328125zm9.40625 -20.812504q-0.125 -2.046875 -1.15625 -4.09375q-1.015625 -2.046875 -3.203125 -3.453125q-2.171875 -1.40625 -5.5 -1.40625q-3.84375 0 -6.53125 2.46875q-2.6875 2.453125 -3.515625 6.484375l19.90625 0zm19.782562 3.2031288l-11.265625 -16.062504l6.140625 0l8.375 12.09375l8.140625 -12.09375l6.3905945 0l-11.4530945 16.062504l11.6562195 16.578125l-6.3437195 0l-8.453125 -12.546875l-8.375 12.546875l-6.34375 0l11.53125 -16.578125zm35.38669 17.09375q-1.984375 0 -3.6875 -0.640625q-1.6875 -0.640625 -2.84375 -1.734375q-2.5625 -2.421875 -2.5625 -6.71875l0 -19.140629l-5.6875 0l0 -4.921875l5.6875 0l0 -9.21875l5.4375 0l0 9.21875l8.0 0l0 4.921875l-8.0 0l0 17.796879q0 2.6875 1.03125 3.96875q1.21875 1.40625 3.515625 1.40625q1.984375 0 3.59375 -1.078125l0 5.3125q-0.96875 0.4375 -1.96875 0.625q-0.984375 0.203125 -2.515625 0.203125z" fill-rule="nonzero"/><path fill="#dddddd" d="m0 0l196.8189 0l0 117.291336l-196.8189 0z" fill-rule="evenodd"/><path fill="#888888" d="m53.292793 40.945045l-12.875 0l0 -5.1875l31.109375 0l0 5.1875l-12.796875 0l0 40.640625l-5.4375 0l0 -40.640625zm33.3432 41.671875q-4.671875 0 -8.390625 -2.234375q-3.703125 -2.25 -5.796875 -6.1875q-2.078125 -3.9375 -2.078125 -8.859375q0 -4.671875 1.953125 -8.671875q1.953125 -4.0 5.5625 -6.359375q3.625 -2.375 8.296875 -2.375q4.796875 0 8.3125 2.140625q3.53125 2.140625 5.421875 5.921875q1.890625 3.765625 1.890625 8.640625q0 0.765625 -0.140625 1.65625l-25.84375 0q0.1875 3.71875 1.78125 6.28125q1.609375 2.546875 4.0625 3.828125q2.46875 1.28125 5.15625 1.28125q6.40625 0 9.671875 -5.890625l4.609375 2.25q-2.0625 3.90625 -5.703125 6.25q-3.640625 2.328125 -8.765625 2.328125zm9.40625 -20.8125q-0.125 -2.046875 -1.15625 -4.09375q-1.015625 -2.046875 -3.203125 -3.453125q-2.171875 -1.40625 -5.5 -1.40625q-3.84375 0 -6.53125 2.46875q-2.6875 2.453125 -3.515625 6.484375l19.90625 0zm19.782562 3.203125l-11.265625 -16.0625l6.140625 0l8.375 12.09375l8.140625 -12.09375l6.3906174 0l-11.453117 16.0625l11.656242 16.578125l-6.3437424 0l-8.453125 -12.546875l-8.375 12.546875l-6.34375 0l11.53125 -16.578125zm35.38671 17.09375q-1.984375 0 -3.6875 -0.640625q-1.6875 -0.640625 -2.84375 -1.734375q-2.5625 -2.421875 -2.5625 -6.71875l0 -19.140625l-5.6875 0l0 -4.921875l5.6875 0l0 -9.21875l5.4375 0l0 9.21875l8.0 0l0 4.921875l-8.0 0l0 17.796875q0 2.6875 1.03125 3.96875q1.21875 1.40625 3.515625 1.40625q1.984375 0 3.59375 -1.078125l0 5.3125q-0.96875 0.4375 -1.96875 0.625q-0.984375 0.203125 -2.515625 0.203125z" fill-rule="nonzero"/></g></svg>